<?xml version="1.0" encoding="UTF-8"?>
<!DOCTYPE svg PUBLIC "-//W3C//DTD SVG 1.1//EN" "http://www.w3.org/Graphics/SVG/1.1/DTD/svg11.dtd">
<!-- Creator: CorelDRAW -->
<svg xmlns="http://www.w3.org/2000/svg" xml:space="preserve" width="91.3553mm" height="91.3553mm" version="1.1" style="shape-rendering:geometricPrecision; text-rendering:geometricPrecision; image-rendering:optimizeQuality; fill-rule:evenodd; clip-rule:evenodd"
viewBox="0 0 1414.38 1414.38"
 xmlns:xlink="http://www.w3.org/1999/xlink"
 xmlns:xodm="http://www.corel.com/coreldraw/odm/2003">
 <defs>
  <style type="text/css">
   <![CDATA[
    .str0 {stroke:red;stroke-width:3.1;stroke-miterlimit:22.9256}
    .fil0 {fill:none}
    .fil1 {fill:#222A31}
    .fil2 {fill:#CCCCCC}
    .fil4 {fill:#FF2E62}
    .fil3 {fill:white}
   ]]>
  </style>
   <clipPath id="id0">
    <path d="M706.32 1177.47c-37.34,-31.04 -74.68,-62.08 -112.02,-93.12 -38.27,31.04 -76.55,62.08 -114.82,93.12 -37.34,-31.04 -74.68,-62.08 -112.02,-93.12 -29.87,23.34 -59.75,46.68 -89.62,70.01 0.24,-145.22 0.49,-290.45 0.73,-435.67 38.54,-548.04 816.98,-548.04 855.52,0 0.24,145.22 0.49,290.45 0.73,435.67 -29.87,-23.34 -59.75,-46.68 -89.62,-70.01 -37.34,31.04 -74.68,62.08 -112.02,93.12 -38.27,-31.04 -76.55,-62.08 -114.82,-93.12 -37.34,31.04 -74.68,62.08 -112.02,93.12z"/>
   </clipPath>
   <clipPath id="id1">
    <path d="M706.32 1177.47c-37.34,-31.04 -74.68,-62.08 -112.02,-93.12 -38.27,31.04 -76.55,62.08 -114.82,93.12 -37.34,-31.04 -74.68,-62.08 -112.02,-93.12 -29.87,23.34 -59.75,46.68 -89.62,70.01 0.24,-145.22 0.49,-290.45 0.73,-435.67 38.54,-548.04 816.98,-548.04 855.52,0 0.24,145.22 0.49,290.45 0.73,435.67 -29.87,-23.34 -59.75,-46.68 -89.62,-70.01 -37.34,31.04 -74.68,62.08 -112.02,93.12 -38.27,-31.04 -76.55,-62.08 -114.82,-93.12 -37.34,31.04 -74.68,62.08 -112.02,93.12z"/>
   </clipPath>
   <clipPath id="id2">
    <path d="M176.6 699.58l45.44 0 0 307.19 -45.44 0 0 -307.19z"/>
   </clipPath>
   <clipPath id="id3">
    <path d="M161.37 699.58l-28.28 0c-33.68,0 -61.23,27.55 -61.23,61.23l0 184.73c0,33.68 27.56,61.23 61.23,61.23l28.28 0 0 -307.19z"/>
   </clipPath>
   <clipPath id="id4">
    <path d="M1236.01 699.58l-45.44 0 0 307.19 45.44 0 0 -307.19z"/>
   </clipPath>
   <clipPath id="id5">
    <path d="M1251.24 699.58l28.28 0c33.68,0 61.23,27.55 61.23,61.23l0 184.73c0,33.68 -27.55,61.23 -61.23,61.23l-28.28 0 0 -307.19z"/>
   </clipPath>
 </defs>
 <g id="Layer_x0020_1">
  <metadata id="CorelCorpID_0Corel-Layer"/>
  <rect class="fil0" x="-0" y="0" width="1414.38" height="1414.38"/>
  <path class="fil1" d="M278.56 718.7c38.54,-548.04 816.98,-548.04 855.52,0 0.24,145.22 0.49,290.45 0.73,435.67 -29.87,-23.34 -59.75,-46.68 -89.62,-70.01 -37.34,31.04 -74.68,62.08 -112.02,93.12 -38.27,-31.04 -76.55,-62.08 -114.82,-93.12 -37.34,31.04 -74.68,62.08 -112.02,93.12 -37.34,-31.04 -74.68,-62.08 -112.02,-93.12 -38.27,31.04 -76.55,62.08 -114.82,93.12 -37.34,-31.04 -74.68,-62.08 -112.02,-93.12 -29.87,23.34 -59.75,46.68 -89.62,70.01 0.24,-145.22 0.49,-290.45 0.73,-435.67zm-34.67 -2.31c0,169.71 -0.57,339.44 -0.85,509.16l123.74 -96.67 112.44 93.47 114.82 -93.12 90.1 74.9 22.16 18.42 112.27 -93.32 114.82 93.12 112.44 -93.47 123.74 96.67c-0.28,-169.71 -0.85,-339.45 -0.85,-509.16 -14.16,-201.3 -121.75,-334.26 -259.04,-398.65 -63.78,-29.91 -133.7,-44.87 -203.39,-44.87 -69.69,0 -139.61,14.96 -203.39,44.87 -137.29,64.39 -244.88,197.35 -259.04,398.65z"/>
  <path class="fil1" d="M1339.11 787.7l0 0c7.05,0 12.81,5.76 12.81,12.81l0 105.33c0,7.05 -5.76,12.81 -12.81,12.81l0 0 0 -130.94z"/>
  <g>
  </g>
  <g style="clip-path:url(#id0)">
   <g id="_2475808920784">
    <path class="fil0 str0" d="M706.32 1128.15c-37.34,-31.04 -74.68,-62.08 -112.02,-93.12 -38.27,31.04 -76.55,62.08 -114.82,93.12 -37.34,-31.04 -74.68,-62.08 -112.02,-93.12 -29.87,23.34 -59.75,46.68 -89.62,70.01 0.24,-145.22 0.49,-290.45 0.73,-435.67 38.54,-548.04 816.98,-548.04 855.52,0 0.24,145.22 0.49,290.45 0.73,435.67 -29.87,-23.34 -59.75,-46.68 -89.62,-70.01 -37.34,31.04 -74.68,62.08 -112.02,93.12 -38.27,-31.04 -76.55,-62.08 -114.82,-93.12 -37.34,31.04 -74.68,62.08 -112.02,93.12z"/>
   </g>
  </g>
  <path class="fil0" d="M706.32 1177.47c-37.34,-31.04 -74.68,-62.08 -112.02,-93.12 -38.27,31.04 -76.55,62.08 -114.82,93.12 -37.34,-31.04 -74.68,-62.08 -112.02,-93.12 -29.87,23.34 -59.75,46.68 -89.62,70.01 0.24,-145.22 0.49,-290.45 0.73,-435.67 38.54,-548.04 816.98,-548.04 855.52,0 0.24,145.22 0.49,290.45 0.73,435.67 -29.87,-23.34 -59.75,-46.68 -89.62,-70.01 -37.34,31.04 -74.68,62.08 -112.02,93.12 -38.27,-31.04 -76.55,-62.08 -114.82,-93.12 -37.34,31.04 -74.68,62.08 -112.02,93.12z"/>
  <path class="fil2" d="M706.32 1177.47c-37.34,-31.04 -74.68,-62.08 -112.02,-93.12 -38.27,31.04 -76.55,62.08 -114.82,93.12 -37.34,-31.04 -74.68,-62.08 -112.02,-93.12 -29.87,23.34 -59.75,46.68 -89.62,70.01 0.24,-145.22 0.49,-290.45 0.73,-435.67 38.54,-548.04 816.98,-548.04 855.52,0 0.24,145.22 0.49,290.45 0.73,435.67 -29.87,-23.34 -59.75,-46.68 -89.62,-70.01 -37.34,31.04 -74.68,62.08 -112.02,93.12 -38.27,-31.04 -76.55,-62.08 -114.82,-93.12 -37.34,31.04 -74.68,62.08 -112.02,93.12z"/>
  <g style="clip-path:url(#id1)">
   <g id="_2475808920304">
    <path id="_1" class="fil3" d="M706.32 1128.15c-37.34,-31.04 -74.68,-62.08 -112.02,-93.12 -38.27,31.04 -76.55,62.08 -114.82,93.12 -37.34,-31.04 -74.68,-62.08 -112.02,-93.12 -29.87,23.34 -59.75,46.68 -89.62,70.01 0.24,-145.22 0.49,-290.45 0.73,-435.67 38.54,-548.04 816.98,-548.04 855.52,0 0.24,145.22 0.49,290.45 0.73,435.67 -29.87,-23.34 -59.75,-46.68 -89.62,-70.01 -37.34,31.04 -74.68,62.08 -112.02,93.12 -38.27,-31.04 -76.55,-62.08 -114.82,-93.12 -37.34,31.04 -74.68,62.08 -112.02,93.12z"/>
   </g>
  </g>
  <path class="fil0" d="M706.32 1177.47c-37.34,-31.04 -74.68,-62.08 -112.02,-93.12 -38.27,31.04 -76.55,62.08 -114.82,93.12 -37.34,-31.04 -74.68,-62.08 -112.02,-93.12 -29.87,23.34 -59.75,46.68 -89.62,70.01 0.24,-145.22 0.49,-290.45 0.73,-435.67 38.54,-548.04 816.98,-548.04 855.52,0 0.24,145.22 0.49,290.45 0.73,435.67 -29.87,-23.34 -59.75,-46.68 -89.62,-70.01 -37.34,31.04 -74.68,62.08 -112.02,93.12 -38.27,-31.04 -76.55,-62.08 -114.82,-93.12 -37.34,31.04 -74.68,62.08 -112.02,93.12z"/>
  <path class="fil1" d="M738.7 709.58c12.78,-3.09 25.55,-6.19 46.87,-19.5 21.31,-13.31 51.17,-36.85 76.31,-54.87 25.15,-18.02 45.59,-30.52 63.61,-35.9 18.02,-5.38 33.62,-3.63 49.22,-1.88 -20.17,34.43 -40.34,68.85 -57.02,93.32 -16.68,24.48 -29.85,39 -47.74,47.61 -17.88,8.61 -40.48,11.29 -63.14,5.51 -22.66,-5.78 -45.39,-20.04 -68.11,-34.29z"/>
  <path class="fil1" d="M671.89 709.58c-12.78,-3.09 -25.55,-6.19 -46.87,-19.5 -21.31,-13.31 -51.17,-36.85 -76.31,-54.87 -25.15,-18.02 -45.59,-30.52 -63.61,-35.9 -18.02,-5.38 -33.62,-3.63 -49.22,-1.88 20.17,34.43 40.34,68.85 57.02,93.32 16.68,24.48 29.85,39 47.74,47.61 17.88,8.61 40.48,11.29 63.14,5.51 22.66,-5.78 45.39,-20.04 68.11,-34.29z"/>
  <path class="fil1" d="M220.78 701.79c7.02,-103.1 36.2,-189.8 80.35,-260 48.94,-77.79 116.17,-135.08 192.01,-171.81 33.19,-16.08 67.98,-28.17 103.52,-36.27 36.32,-8.28 73.16,-12.42 109.66,-12.42 36.5,0 73.34,4.14 109.66,12.42 35.54,8.1 70.32,20.19 103.51,36.27 75.83,36.74 143.07,94.02 192.01,171.81 44.16,70.19 73.34,156.89 80.35,260l0.09 1.59c0,106.28 0.09,184.37 0.22,253.13l34.7 0c-0.06,-53.12 -0.11,-128.12 -0.11,-253.13l-0.23 -3.98c-7.46,-109.55 -38.67,-202 -85.93,-277.13 -52.63,-83.65 -124.91,-145.24 -206.42,-184.73 -35.51,-17.2 -72.71,-30.14 -110.72,-38.8 -39.2,-8.93 -78.55,-13.4 -117.14,-13.4 -38.59,0 -77.94,4.47 -117.14,13.4 -38.01,8.66 -75.21,21.6 -110.72,38.8 -81.51,39.49 -153.79,101.08 -206.42,184.73 -47.26,75.13 -78.47,167.58 -85.93,277.13l-0.23 3.98c0,125.01 -0.04,200.01 -0.11,253.13l34.7 0c0.12,-68.75 0.22,-146.84 0.22,-253.13l0.09 -1.59z"/>
  <path class="fil4" d="M220.78 714.85c7.02,-99.82 36.2,-183.75 80.35,-251.71 48.94,-75.31 116.17,-130.77 192.01,-166.34 33.19,-15.57 67.98,-27.28 103.52,-35.12 36.32,-8.01 73.16,-12.02 109.66,-12.02 36.5,0 73.34,4.01 109.66,12.02 35.54,7.84 70.32,19.55 103.51,35.12 75.83,35.57 143.07,91.03 192.01,166.34 44.16,67.96 73.34,151.89 80.35,251.71l0.09 1.54c0,102.9 0.09,178.5 0.22,245.06l34.7 0c-0.06,-51.42 -0.11,-124.04 -0.11,-245.06l-0.23 -3.85c-7.46,-106.06 -38.67,-195.56 -85.93,-268.29 -52.63,-80.99 -124.91,-140.62 -206.42,-178.84 -35.51,-16.65 -72.71,-29.18 -110.72,-37.56 -39.2,-8.65 -78.55,-12.98 -117.14,-12.98 -38.59,0 -77.94,4.33 -117.14,12.98 -38.01,8.38 -75.21,20.91 -110.72,37.56 -81.51,38.23 -153.79,97.86 -206.42,178.84 -47.26,72.74 -78.47,162.24 -85.93,268.29l-0.23 3.85c0,121.02 -0.04,193.63 -0.11,245.06l34.7 0c0.12,-66.56 0.22,-142.16 0.22,-245.06l0.09 -1.54z"/>
  <polygon class="fil1" points="176.6,699.58 222.03,699.58 222.03,1006.77 176.6,1006.77 "/>
  <g style="clip-path:url(#id2)">
   <g id="_2475808898560">
    <rect class="fil4" x="7.42" y="853.18" width="279.69" height="186.13"/>
   </g>
  </g>
  <polygon class="fil0" points="176.6,699.58 222.03,699.58 222.03,1006.77 176.6,1006.77 "/>
  <path class="fil1" d="M161.37 699.58l-28.28 0c-33.68,0 -61.23,27.55 -61.23,61.23l0 184.73c0,33.68 27.56,61.23 61.23,61.23l28.28 0 0 -307.19z"/>
  <g style="clip-path:url(#id3)">
   <g id="_2475808902592">
    <rect class="fil0" x="7.42" y="853.18" width="279.69" height="186.13"/>
    <rect class="fil4" x="7.42" y="853.18" width="279.69" height="186.13"/>
   </g>
  </g>
  <path class="fil0" d="M161.37 699.58l-28.28 0c-33.68,0 -61.23,27.55 -61.23,61.23l0 184.73c0,33.68 27.56,61.23 61.23,61.23l28.28 0 0 -307.19z"/>
  <polygon class="fil1" points="1236.01,699.58 1190.58,699.58 1190.58,1006.77 1236.01,1006.77 "/>
  <g style="clip-path:url(#id4)">
   <g id="_2475808903696">
    <rect class="fil4" x="1125.5" y="853.18" width="279.69" height="186.13"/>
   </g>
  </g>
  <polygon class="fil0" points="1236.01,699.58 1190.58,699.58 1190.58,1006.77 1236.01,1006.77 "/>
  <path class="fil1" d="M1251.24 699.58l28.28 0c33.68,0 61.23,27.55 61.23,61.23l0 184.73c0,33.68 -27.55,61.23 -61.23,61.23l-28.28 0 0 -307.19z"/>
  <g style="clip-path:url(#id5)">
   <g id="_2475808902016">
    <rect class="fil0" x="1125.5" y="853.18" width="279.69" height="186.13"/>
    <rect class="fil4" x="1125.5" y="853.18" width="279.69" height="186.13"/>
   </g>
  </g>
  <path class="fil0" d="M1251.24 699.58l28.28 0c33.68,0 61.23,27.55 61.23,61.23l0 184.73c0,33.68 -27.55,61.23 -61.23,61.23l-28.28 0 0 -307.19z"/>
  <path class="fil1" d="M73.5 787.7l0 0c-7.05,0 -12.81,5.76 -12.81,12.81l0 105.33c0,7.05 5.76,12.81 12.81,12.81l0 0 0 -130.94z"/>
 </g>
</svg>
